<svg width="100" height="100" viewBox="0 0 100 100" fill="none" xmlns="http://www.w3.org/2000/svg">
<path d="M93.6594 11.4832H6.34063C2.84453 11.4832 0 14.3277 0 17.8238V82.176C0 85.672 2.84453 88.5166 6.34063 88.5166H93.6594C97.1555 88.5166 100 85.672 100 82.176V17.8238C100 14.3277 97.1555 11.4832 93.6594 11.4832ZM85.5209 15.0717L50 40.9615L14.4791 15.0717H85.5209ZM11.2439 84.9281H6.34063C4.82324 84.9281 3.58848 83.6933 3.58848 82.176V26.406L11.2439 31.9859V84.9281ZM85.1674 84.9281H14.8326V34.6017L48.9434 59.4642C49.258 59.6937 49.6289 59.8086 50 59.8086C50.3711 59.8086 50.7422 59.6937 51.0566 59.4642L85.1674 34.6015V84.9281ZM96.4115 82.176C96.4115 83.6933 95.1768 84.9281 93.6594 84.9281H88.7561V31.9859L96.4115 26.406V82.176ZM96.4115 21.9656L50 55.7939L3.58848 21.9656V17.8238C3.58848 16.3064 4.82324 15.0717 6.34063 15.0717H8.38672L48.9434 44.6318C49.2582 44.8613 49.6289 44.9762 50 44.9762C50.3711 44.9762 50.7418 44.8613 51.0566 44.6318L91.6131 15.0717H93.6592C95.1766 15.0717 96.4113 16.3064 96.4113 17.8238L96.4115 21.9656Z" fill="#4D4646"/>
<path d="M50 42.5287L10.3448 13.7931H3.44825L2.29883 18.3908V21.8391L3.44825 24.7126L50 57.4713L97.1264 23.5632V21.2644V16.0919L93.6781 13.7931H88.5057L50 42.5287Z" fill="#4D4646"/>
<path d="M12.6437 32.7586L2.29883 25.2874V82.1839V84.4827L5.17239 85.6322H12.6437V32.7586Z" fill="#4D4646"/>
<path d="M87.3563 32.7586L97.7012 25.2874V82.1839V84.4827L94.8276 85.6322H87.3563V32.7586Z" fill="#4D4646"/>
</svg>
